<?xml version="1.0" standalone="no"?>
<!DOCTYPE svg PUBLIC "-//W3C//DTD SVG 20010904//EN"
 "http://www.w3.org/TR/2001/REC-SVG-20010904/DTD/svg10.dtd">
<svg version="1.0" xmlns="http://www.w3.org/2000/svg"
 width="500.000000pt" height="500.000000pt" viewBox="0 0 500.000000 500.000000"
 preserveAspectRatio="xMidYMid meet">

<g transform="translate(0.000000,500.000000) scale(0.100000,-0.100000)"
fill="#000000" stroke="none">
<path d="M2453 3726 c-13 -13 -23 -29 -23 -35 0 -19 39 -12 52 9 7 11 16 20
20 20 15 0 8 -31 -17 -80 -14 -28 -21 -50 -15 -50 5 0 10 4 10 9 0 5 9 12 19
16 11 3 24 19 29 34 6 16 20 32 31 36 28 9 27 23 -3 35 -13 5 -27 14 -31 19
-11 19 -49 12 -72 -13z"/>
<path d="M2987 3534 c-11 -14 -16 -28 -12 -32 3 -4 11 1 16 11 13 23 26 22 34
-3 4 -13 0 -31 -10 -46 -23 -36 -16 -37 24 -5 30 24 32 30 22 49 -6 12 -17 22
-23 22 -6 0 -16 7 -22 14 -9 13 -14 11 -29 -10z"/>
<path d="M2086 2998 c2 -128 3 -143 19 -147 18 -3 71 -45 223 -176 44 -38 96
-81 114 -95 30 -22 31 -22 14 -2 -20 23 -9 31 13 10 11 -10 13 -10 7 0 -5 9 4
12 35 12 26 0 50 7 61 17 18 16 18 16 12 -3 -7 -16 -5 -17 8 -7 8 7 18 9 22 5
4 -4 23 -7 42 -7 l35 -1 -33 31 c-18 17 -73 66 -123 109 -115 100 -194 170
-328 292 -60 55 -112 100 -115 102 -4 1 -6 -62 -6 -140z m555 -365 c-11 -5
-11 -7 0 -14 11 -7 10 -9 -3 -9 -18 0 -23 11 -11 23 3 4 11 7 17 6 6 0 5 -3
-3 -6z"/>
<path d="M1800 2742 c0 -149 1 -162 18 -162 10 0 43 -22 74 -50 48 -43 58 -48
68 -35 8 10 17 12 24 6 6 -5 46 -10 89 -10 43 0 83 -4 89 -7 7 -4 8 -2 4 4
-10 16 7 15 23 0 11 -11 12 -10 6 1 -6 11 -4 13 8 8 10 -3 17 -3 17 1 0 9 -81
87 -130 126 -19 15 -92 84 -162 154 l-128 127 0 -163z"/>
<path d="M1966 2485 c-10 -26 -7 -29 11 -14 15 12 16 12 9 -6 -6 -16 -5 -18 5
-7 11 10 10 15 -3 28 -14 14 -16 14 -22 -1z"/>
<path d="M2233 2475 c0 -8 4 -12 9 -9 5 3 6 10 3 15 -9 13 -12 11 -12 -6z"/>
<path d="M1680 2372 c0 -4 24 -31 53 -60 51 -50 55 -52 80 -41 16 7 27 21 28
33 0 12 2 29 4 38 2 14 -8 18 -53 23 -32 3 -69 8 -84 10 -16 3 -28 1 -28 -3z"/>
<path d="M1840 2270 c-25 -25 -25 -42 -2 -63 21 -19 48 -22 57 -7 4 6 11 8 16
5 5 -4 9 -1 9 5 0 6 5 8 13 4 13 -8 -2 14 -37 54 -24 27 -31 27 -56 2z"/>
<path d="M2485 2260 c-3 -5 12 -29 34 -52 l40 -43 1 30 c0 17 -7 41 -16 53
-16 23 -48 29 -59 12z"/>
<path d="M2286 2089 c-143 -8 -194 -19 -90 -19 37 0 75 -8 102 -20 73 -33 51
-48 -78 -50 -102 -2 -100 -2 -100 19 0 15 -7 19 -35 19 -19 0 -35 -3 -35 -7 0
-4 28 -32 63 -62 l62 -55 100 12 c55 7 155 13 222 13 67 1 124 5 127 10 3 5
-28 40 -70 78 -85 77 -66 72 -268 62z"/>
<path d="M2850 2036 l0 -44 83 -12 c317 -46 577 -190 542 -301 -5 -15 -10 -17
-25 -9 -33 18 -51 11 -109 -42 -99 -91 -248 -149 -473 -185 -160 -26 -587 -25
-740 0 -149 25 -277 61 -381 107 -49 22 -93 40 -98 40 -22 0 -5 -20 35 -43 82
-46 245 -96 426 -131 14 -3 0 -3 -31 -1 -175 14 -470 121 -528 192 -54 66 -40
132 44 206 33 29 195 104 265 123 36 9 68 20 72 23 4 4 -17 26 -46 49 -30 23
-56 38 -58 34 -2 -4 -57 -21 -123 -36 -223 -53 -361 -119 -446 -214 -70 -77
-81 -154 -34 -226 25 -38 123 -116 145 -116 10 0 22 -4 25 -10 3 -5 11 -10 17
-10 6 0 1 9 -12 20 -13 11 -19 21 -14 21 5 1 18 3 29 5 82 16 93 15 210 -24
116 -39 203 -61 330 -83 33 -6 109 -20 168 -30 60 -11 159 -24 220 -30 209
-18 228 -20 250 -29 12 -5 18 -9 12 -10 -56 -5 -121 -13 -124 -16 -2 -2 66 -4
152 -4 217 0 465 33 632 85 44 14 85 25 90 25 24 -1 -27 -22 -115 -50 -162
-50 -424 -78 -750 -82 -132 -1 -191 -5 -165 -10 104 -20 529 -7 698 22 31 6
85 15 120 21 349 60 602 164 683 280 86 124 30 238 -167 339 -122 62 -238 102
-401 135 -103 20 -374 65 -400 65 -5 0 -8 -20 -8 -44z m-677 -633 c-7 -2 -19
-2 -25 0 -7 3 -2 5 12 5 14 0 19 -2 13 -5z m80 -10 c-7 -2 -21 -2 -30 0 -10 3
-4 5 12 5 17 0 24 -2 18 -5z m94 -9 c-3 -3 -12 -4 -19 -1 -8 3 -5 6 6 6 11 1
17 -2 13 -5z m801 -39 c-8 -9 -260 -56 -266 -50 -10 10 3 14 108 33 107 20
168 26 158 17z m-440 -72 c-10 -2 -28 -2 -40 0 -13 2 -5 4 17 4 22 1 32 -1 23
-4z"/>
<path d="M2850 1956 c0 -21 6 -27 38 -35 20 -5 57 -15 82 -21 25 -7 77 -29
115 -50 60 -32 80 -38 140 -39 l69 -2 -19 21 c-41 45 -257 129 -372 145 -52 7
-53 6 -53 -19z"/>
<path d="M1874 1911 c-80 -31 -132 -61 -158 -90 -17 -19 -16 -19 61 -17 68 2
84 6 128 33 99 63 99 62 79 84 -22 24 -25 24 -110 -10z"/>
<path d="M2185 1770 c-2 -4 11 -22 30 -40 l35 -33 25 27 c14 16 24 33 22 39
-4 13 -105 19 -112 7z"/>
<path d="M3050 1560 c0 -5 5 -10 10 -10 6 0 10 5 10 10 0 6 -4 10 -10 10 -5 0
-10 -4 -10 -10z"/>
<path d="M2860 1529 c-69 -12 -213 -31 -230 -31 -41 2 -112 -11 -99 -18 30
-16 109 -20 200 -10 91 10 236 44 252 59 10 10 -67 10 -123 0z"/>
<path d="M1405 1460 c3 -5 8 -10 11 -10 2 0 4 5 4 10 0 6 -5 10 -11 10 -5 0
-7 -4 -4 -10z"/>
<path d="M2188 1273 c7 -3 16 -2 19 1 4 3 -2 6 -13 5 -11 0 -14 -3 -6 -6z"/>
<path d="M2303 1263 c15 -2 37 -2 50 0 12 2 0 4 -28 4 -27 0 -38 -2 -22 -4z"/>
</g>
</svg>
